<?xml version="1.0" encoding="UTF-8" standalone="no"?>
<!DOCTYPE svg PUBLIC "-//W3C//DTD SVG 1.1//EN" "http://www.w3.org/Graphics/SVG/1.1/DTD/svg11.dtd">
<!-- Created with Vectornator (http://vectornator.io/) -->
<svg height="100%" stroke-miterlimit="10" style="fill-rule:nonzero;clip-rule:evenodd;stroke-linecap:round;stroke-linejoin:round;" version="1.1" viewBox="0 0 576 576" width="100%" xml:space="preserve" xmlns="http://www.w3.org/2000/svg" xmlns:xlink="http://www.w3.org/1999/xlink">
<defs>
<filter color-interpolation-filters="sRGB" filterUnits="userSpaceOnUse" height="574.349" id="Filter" width="574.349" x="0.825675" y="0.825675">
<feDropShadow dx="-0" dy="0" flood-color="#ffffff" flood-opacity="1" in="SourceGraphic" result="Shadow" stdDeviation="6.86973"/>
</filter>
<filter color-interpolation-filters="sRGB" filterUnits="userSpaceOnUse" height="574.349" id="Filter_2" width="574.349" x="0.825675" y="0.825675">
<feDropShadow dx="-0" dy="0" flood-color="#ffffff" flood-opacity="1" in="SourceGraphic" result="Shadow" stdDeviation="6.86973"/>
</filter>
<linearGradient gradientTransform="matrix(356.189 330.592 -330.711 356.061 88.7728 125.307)" gradientUnits="userSpaceOnUse" id="LinearGradient" x1="0" x2="1" y1="0" y2="0">
<stop offset="0" stop-color="#f6c485"/>
<stop offset="0.3625" stop-color="#fe7733"/>
<stop offset="0.808333" stop-color="#fc5500"/>
</linearGradient>
<linearGradient gradientTransform="matrix(575.395 557.958 -557.958 575.395 3.29731 7.63664)" gradientUnits="userSpaceOnUse" id="LinearGradient_2" x1="0" x2="1" y1="0" y2="0">
<stop offset="0" stop-color="#ff8800"/>
<stop offset="0.1" stop-color="#f4f08f"/>
<stop offset="0.152083" stop-color="#ffffff"/>
<stop offset="0.214583" stop-color="#f4f08f"/>
<stop offset="0.472917" stop-color="#ffb400"/>
<stop offset="0.68125" stop-color="#fff89e"/>
<stop offset="0.9125" stop-color="#ff8800"/>
<stop offset="0.997917" stop-color="#a03e00"/>
</linearGradient>
<filter color-interpolation-filters="sRGB" filterUnits="userSpaceOnUse" height="550.5" id="Filter_3" width="550.5" x="12.75" y="12.75">
<feDropShadow dx="-0" dy="0" flood-color="#000000" flood-opacity="0.75" in="SourceGraphic" result="Shadow" stdDeviation="7.5"/>
</filter>
<linearGradient gradientTransform="matrix(610.198 563.485 -563.485 610.198 -1.38882 5.28016)" gradientUnits="userSpaceOnUse" id="LinearGradient_3" x1="0" x2="1" y1="0" y2="0">
<stop offset="0" stop-color="#ff8800"/>
<stop offset="0.1" stop-color="#f4f08f"/>
<stop offset="0.152083" stop-color="#ffffff"/>
<stop offset="0.202083" stop-color="#f4f08f"/>
<stop offset="0.472917" stop-color="#ffb400"/>
<stop offset="0.68125" stop-color="#fff89e"/>
<stop offset="0.9125" stop-color="#ff8800"/>
<stop offset="0.997917" stop-color="#a03e00"/>
</linearGradient>
<filter color-interpolation-filters="sRGB" filterUnits="userSpaceOnUse" height="585.798" id="Filter_4" width="585.798" x="-4.8991" y="-4.8991">
<feDropShadow dx="-0" dy="0" flood-color="#000000" flood-opacity="0.75" in="SourceGraphic" result="Shadow" stdDeviation="9.15964"/>
</filter>
<linearGradient gradientTransform="matrix(455.266 647.475 -647.475 455.266 -23.4607 24.3226)" gradientUnits="userSpaceOnUse" id="LinearGradient_4" x1="0" x2="1" y1="0" y2="0">
<stop offset="0" stop-color="#ff8800"/>
<stop offset="0.1" stop-color="#f4f08f"/>
<stop offset="0.152083" stop-color="#ffffff"/>
<stop offset="0.202083" stop-color="#f4f08f"/>
<stop offset="0.472917" stop-color="#ffb400"/>
<stop offset="0.68125" stop-color="#fff89e"/>
<stop offset="0.9125" stop-color="#ff8800"/>
<stop offset="0.997917" stop-color="#a03e00"/>
</linearGradient>
<filter color-interpolation-filters="sRGB" filterUnits="userSpaceOnUse" height="540.583" id="Filter_5" width="540.583" x="17.7083" y="17.7083">
<feDropShadow dx="-0" dy="0" flood-color="#000000" flood-opacity="1" in="SourceGraphic" result="Shadow" stdDeviation="4.61667"/>
</filter>
<radialGradient cx="0" cy="0" gradientTransform="matrix(471.085 130.7 -130.7 471.085 56.915 145.3)" gradientUnits="userSpaceOnUse" id="RadialGradient" r="1">
<stop offset="0" stop-color="#ffffff" stop-opacity="0.788259"/>
<stop offset="0.191667" stop-color="#ffffff" stop-opacity="0"/>
</radialGradient>
<filter color-interpolation-filters="sRGB" filterUnits="userSpaceOnUse" height="351.72" id="Filter_6" width="293.7" x="141.151" y="112.14">
<feDropShadow dx="-0" dy="0" flood-color="#000000" flood-opacity="1" in="SourceGraphic" result="Shadow" stdDeviation="4.5"/>
</filter>
</defs>
<clipPath id="ArtboardFrame">
<rect height="576" width="576" x="0" y="0"/>
</clipPath>
<g clip-path="url(#ArtboardFrame)" id="block">
<path d="M66.25 18C39.6221 18 18 39.6221 18 66.25L18 509.781C18 536.409 39.6221 558 66.25 558L509.781 558C536.409 558 558 536.409 558 509.781L558 66.25C558 39.6221 536.409 18 509.781 18L66.25 18ZM22 66.2288C22 41.8019 41.8019 22 66.2288 22L509.771 22C534.198 22 554 41.8019 554 66.2288L554 509.771C554 534.198 534.198 554 509.771 554L66.2288 554C41.8019 554 22 534.198 22 509.771L22 66.2288Z" fill="#ffffff" fill-rule="nonzero" filter="url(#Filter)" stroke="none"/>
<path d="M66.25 18C39.6221 18 18 39.6221 18 66.25L18 509.781C18 536.409 39.6221 558 66.25 558L509.781 558C536.409 558 558 536.409 558 509.781L558 66.25C558 39.6221 536.409 18 509.781 18L66.25 18ZM22 66.2288C22 41.8019 41.8019 22 66.2288 22L509.771 22C534.198 22 554 41.8019 554 66.2288L554 509.771C554 534.198 534.198 554 509.771 554L66.2288 554C41.8019 554 22 534.198 22 509.771L22 66.2288Z" fill="#ffffff" fill-rule="nonzero" filter="url(#Filter_2)" stroke="none"/>
<path d="M56.5234 34.5777C44.3529 34.5777 34.4867 44.4439 34.4867 56.6144L34.4867 519.386C34.4867 531.556 44.3528 541.422 56.5234 541.422L519.477 541.422C531.647 541.422 541.513 531.556 541.513 519.386L541.513 56.6144C541.513 44.4439 531.647 34.5777 519.477 34.5777L56.5234 34.5777Z" fill="url(#LinearGradient)" fill-rule="nonzero" opacity="1" stroke="none"/>
<path d="M67.1351 31.5C47.4544 31.5 31.5 47.4544 31.5 67.1351L31.5 508.865C31.5 528.546 47.4544 544.5 67.1351 544.5L508.865 544.5C528.546 544.5 544.5 528.546 544.5 508.865L544.5 67.1351C544.5 47.4544 528.546 31.5 508.865 31.5L67.1351 31.5ZM40.5 66.8981C40.5 52.3188 52.3188 40.5 66.8981 40.5L509.102 40.5C523.681 40.5 535.5 52.3188 535.5 66.898L535.5 509.102C535.5 523.681 523.681 535.5 509.102 535.5L66.898 535.5C52.3188 535.5 40.5 523.681 40.5 509.102L40.5 66.8981Z" fill="url(#LinearGradient_2)" fill-rule="nonzero" filter="url(#Filter_3)" stroke="none"/>
<path d="M66.2344 18C39.6065 18 18 39.6065 18 66.2344L18 509.766C18 536.393 39.6065 558 66.2344 558L509.766 558C536.393 558 558 536.393 558 509.766L558 66.2344C558 39.6065 536.393 18 509.766 18L66.2344 18ZM36 67.0084C36 49.8829 49.8829 36 67.0084 36L508.992 36C526.117 36 540 49.8829 540 67.0083L540 508.992C540 526.117 526.117 540 508.992 540L67.0082 540C49.8829 540 36 526.117 36 508.992L36 67.0084Z" fill="url(#LinearGradient_3)" fill-rule="nonzero" filter="url(#Filter_4)" stroke="none"/>
<path d="M67.1913 29.25C46.2369 29.25 29.25 46.2369 29.25 67.1913L29.25 508.809C29.25 529.763 46.2369 546.75 67.1912 546.75L508.809 546.75C529.763 546.75 546.75 529.763 546.75 508.809L546.75 67.1913C546.75 46.2369 529.763 29.25 508.809 29.25L67.1913 29.25ZM36 67.0084C36 49.8829 49.8829 36 67.0084 36L508.992 36C526.117 36 540 49.8829 540 67.0083L540 508.992C540 526.117 526.117 540 508.992 540L67.0082 540C49.8829 540 36 526.117 36 508.992L36 67.0084Z" fill="url(#LinearGradient_4)" fill-rule="nonzero" filter="url(#Filter_5)" stroke="none"/>
<path d="M71.1562 24C45.1201 24 24 45.1201 24 71.1562L24 504.844C24 530.88 45.1201 552 71.1562 552L504.844 552C530.88 552 552 530.88 552 504.844L552 71.1562C552 45.1201 530.88 24 504.844 24L71.1562 24Z" fill="url(#RadialGradient)" fill-rule="nonzero" opacity="1" stroke="none"/>
<path d="M202.001 123.406C200.722 123.314 199.474 123.79 198.501 124.812C190.342 133.392 174.036 150.545 165.876 159.125C164.406 160.671 164.245 162.971 165.47 164.719C169.597 170.606 177.191 181.434 181.97 188.25C176.821 195.898 118.237 286.584 181.689 387.156C176.9 393.913 169.41 404.502 165.314 410.281C164.077 412.026 164.25 414.478 165.72 416.031C173.74 424.506 189.794 441.463 197.814 449.937C199.714 451.946 202.858 451.7 204.533 449.5C208.606 444.15 215.776 434.639 220.783 428.062C225.223 431.175 238.732 440.192 261.126 446C286.497 452.58 320.363 452.636 353.876 429.187C359.03 435.797 366.58 445.475 370.814 450.906C372.501 453.071 375.647 453.181 377.533 451.187C385.482 442.783 401.395 425.967 409.345 417.562C410.807 416.017 410.971 413.712 409.751 411.969C405.659 406.117 398.119 395.343 393.376 388.562C398.444 380.891 458.802 285.751 393.376 186.719C398.241 180.145 405.878 169.925 410.033 164.312C411.321 162.572 411.107 160.142 409.626 158.562C401.747 150.158 385.975 133.342 378.095 124.937C376.185 122.9 372.888 123.135 371.22 125.375C367.172 130.813 359.978 140.336 354.97 147.062C350.282 143.526 337.016 134.092 314.783 128.031C289.25 121.07 255.141 121.501 221.064 147.344C216.244 140.544 209.298 130.752 205.376 125.219C204.56 124.067 203.281 123.498 202.001 123.406ZM290.689 184.906C310.782 185.903 325.283 194.688 325.283 194.687L287.876 247.937L250.345 195.125C264.52 186.518 278.633 184.308 290.689 184.906ZM357.939 228.187C393.077 287.865 358.47 346.562 358.47 346.562L315.626 286.594L357.939 228.187ZM218.408 228.594L260.72 287.156L217.845 347.094C217.845 347.094 183.27 288.271 218.408 228.594ZM288.158 328.187L325.564 381.281C325.564 381.281 288.425 403.827 250.626 380.875L288.158 328.187Z" fill="#ffffff" fill-rule="nonzero" opacity="1" stroke="none"/>
<path d="M202.016 123.401C200.737 123.309 199.486 123.78 198.514 124.802C190.354 133.382 174.035 150.542 165.875 159.122C164.405 160.668 164.23 162.977 165.455 164.725C169.582 170.612 177.205 181.442 181.984 188.258C176.836 195.906 118.252 286.599 181.704 387.171C176.915 393.928 169.411 404.505 165.315 410.284C164.078 412.029 164.265 414.474 165.735 416.027C173.755 424.502 189.794 441.452 197.813 449.927C199.714 451.935 202.862 451.706 204.537 449.506C208.61 444.157 215.78 434.65 220.786 428.074C225.226 431.187 238.735 440.197 261.129 446.004C286.5 452.584 320.349 452.643 353.862 429.195C359.015 435.804 366.577 445.477 370.812 450.907C372.499 453.072 375.65 453.181 377.535 451.187C385.485 442.783 401.384 425.973 409.333 417.568C410.795 416.023 410.973 413.709 409.754 411.965C405.661 406.114 398.107 395.352 393.364 388.572C398.432 380.901 458.79 285.749 393.364 186.717C398.229 180.144 405.88 169.917 410.034 164.305C411.322 162.564 411.095 160.141 409.614 158.561C401.734 150.157 385.975 133.347 378.096 124.942C376.186 122.905 372.899 123.122 371.232 125.362C367.183 130.801 359.99 140.348 354.983 147.075C350.294 143.538 337.013 134.085 314.78 128.024C289.247 121.063 255.144 121.512 221.067 147.355C216.247 140.555 209.3 130.756 205.378 125.222C204.562 124.071 203.295 123.493 202.016 123.401ZM201.736 127.884L219.806 153.378C288.063 97.3915 356.103 153.238 356.103 153.238L374.874 128.024L406.392 161.643L388.041 186.437C457.494 287.844 388.181 388.852 388.181 388.852L406.112 414.487L374.314 448.106L354.983 423.312C288.099 473.838 219.806 422.191 219.806 422.191L201.035 446.845L168.957 412.946L187.027 387.451C119.657 284.14 187.167 187.978 187.167 187.978L169.097 162.203L201.736 127.884ZM290.686 184.896C278.63 184.298 264.518 186.515 250.343 195.122L287.884 247.932L325.286 194.702C325.286 194.702 310.779 185.893 290.686 184.896ZM290.406 189.379C304.833 190.095 313.999 194.212 318.562 196.523C309.734 209.087 296.908 227.385 287.884 240.228C278.885 227.568 266.093 209.583 257.207 197.083C268.945 191.104 280.364 188.881 290.406 189.379ZM357.924 228.181L315.62 286.594L358.485 346.548C358.485 346.548 393.062 287.858 357.924 228.181ZM218.405 228.601C183.267 288.279 217.845 347.108 217.845 347.108L260.709 287.154L218.405 228.601ZM357.084 237.146C379.78 282.437 364.382 323.906 357.784 337.723C346.966 322.592 331.146 300.472 321.223 286.594C330.964 273.144 346.412 251.882 357.084 237.146ZM219.245 237.566C229.918 252.338 245.364 273.67 255.106 287.154C245.184 301.032 229.363 323.153 218.545 338.283C211.95 324.43 196.558 282.85 219.245 237.566ZM288.165 328.198L250.623 380.867C288.422 403.819 325.566 381.288 325.566 381.288L288.165 328.198ZM288.165 335.902C297.22 348.756 310.162 367.087 318.982 379.607C310.219 383.854 284.956 393.318 257.347 379.187C266.222 366.735 279.114 348.6 288.165 335.902Z" fill="#ffcc33" fill-rule="nonzero" filter="url(#Filter_6)" stroke="none"/>
</g>
</svg>
